# xmcd
#
# Track frame offsets:
#	150
#	15071
#	29329
#	48876
#	64341
#	83698
#	95488
#	111495
#	129083
#	150445
#	166276
#	179477
#	195413
#	207256
#	227019
#	244457
#
# Disc length: 3461
#
# Revision: 2
# Processed by: cddbd v1.5.1PL0 Copyright (c) Steve Scherf et al.
# Submitted via: audiograbber 1.82.02
# Normalized: r1:DSETVAR1
#
DISCID=c50d8310
DTITLE=Various Artist - Best of Country Rock, The
DYEAR=2002
DGENRE=Country
TTITLE0=Bellamy Brothers, The - Let Your Love Flow
TTITLE1=Nicolette Larson - Lotta Love
TTITLE2=Pure Prairie League - Amie
TTITLE3=Richie Furay - I Still Have The Dreams
TTITLE4=Doobie Brothers, The - Black Water
TTITLE5=Firefall - You Are The Woman
TTITLE6=Band, The - Night They Drove Old Dixie Down, The
TTITLE7=Linda Ronstadt - Blue Bayou
TTITLE8=Grateful Dead, The - Uncle John's Band
TTITLE9=Souther-Hillman-Furay Band, The - Fallin' In Love
TTITLE10=Poco - Crazy Love
TTITLE11=Linda Ronstadt - Desperado
TTITLE12=Emmylou Harris - If I Could Only Win our Love
TTITLE13=Gram Parsons - Return Of The Grievous Angel
TTITLE14=Little Feat - Willin
TTITLE15=Delaney and Bonnie and Friends - Never Ending Song Of Love
EXTD=YEAR: 2002 ID3G: 2
EXTT0=
EXTT1=
EXTT2=
EXTT3=
EXTT4=
EXTT5=
EXTT6=
EXTT7=
EXTT8=
EXTT9=
EXTT10=
EXTT11=
EXTT12=
EXTT13=
EXTT14=
EXTT15=
PLAYORDER=
